<?xml version="1.0" standalone="no"?><!DOCTYPE svg PUBLIC "-//W3C//DTD SVG 1.1//EN" "http://www.w3.org/Graphics/SVG/1.1/DTD/svg11.dtd"><svg t="1738391583993" class="icon" viewBox="0 0 1024 1024" version="1.1" xmlns="http://www.w3.org/2000/svg" p-id="67357" xmlns:xlink="http://www.w3.org/1999/xlink" width="200" height="200"><path d="M896 160a80 80 0 0 1 80 80V608a80 80 0 0 1-80 80H128A80 80 0 0 1 48 608V240A80 80 0 0 1 128 160h768z m-16 96h-736v336h64v-136a32 32 0 0 1 32-32h32a32 32 0 0 1 32 32v136h72v-232a32 32 0 0 1 32-32h32a32 32 0 0 1 32 32v232h80v-136a32 32 0 0 1 32-32h32a32 32 0 0 1 32 32v136h72v-232a32 32 0 0 1 32-32h32a32 32 0 0 1 32 32v232h64V256zM832 800v32a32 32 0 0 1-32 32H224a32 32 0 0 1-32-32v-32a32 32 0 0 1 32-32h576a32 32 0 0 1 32 32z" fill="#d4237a" p-id="67358"></path></svg>