<?xml version="1.0" standalone="no"?><!DOCTYPE svg PUBLIC "-//W3C//DTD SVG 1.1//EN" "http://www.w3.org/Graphics/SVG/1.1/DTD/svg11.dtd"><svg t="1738388540915" class="icon" viewBox="0 0 1024 1024" version="1.1" xmlns="http://www.w3.org/2000/svg" p-id="42731" xmlns:xlink="http://www.w3.org/1999/xlink" width="200" height="200"><path d="M0 1024h1023.968V0.032H0z" fill="#d4237a" fill-opacity="0" p-id="42732"></path><path d="M672.192 396.736c-3.36 0-6.688 0.352-10.048 0.512a209.984 209.984 0 0 0-189.76-120.32c-105.792 0-193.056 78.176-207.776 179.872a185.536 185.536 0 0 0 62.72 360.256 185.472 185.472 0 0 0 165.312-101.408 209.792 209.792 0 0 0 179.584 101.44 210.144 210.144 0 0 0 210.144-210.208 210.144 210.144 0 0 0-210.144-210.144" fill="#d4237a" opacity=".1" p-id="42733"></path><path d="M712.576 772.608a200.64 200.64 0 0 1-200.032-187.744l0.32 6.304a231.616 231.616 0 0 0-42.56-122.752 232.288 232.288 0 0 0-201.696-97.76c22.848-85.6 101.024-148.832 193.696-148.832a200.64 200.64 0 0 1 172.544 98.528 262.656 262.656 0 0 0-79.2 40.16 31.52 31.52 0 0 0-2.592 48.192 31.424 31.424 0 0 0 40.224 2.464 200.576 200.576 0 0 1 127.616-39.296 200.672 200.672 0 0 1 192.128 200.256 200.672 200.672 0 0 1-200.448 200.48m0-463.936c-4.16 0-8.256 0.128-12.384 0.32A263.456 263.456 0 0 0 201.6 384.128a232.64 232.64 0 1 0 196.416 419.584c9.44-5.344 18.496-11.2 27.104-17.632a31.456 31.456 0 0 0 2.624-48.16 31.424 31.424 0 0 0-40.224-2.496 196.608 196.608 0 0 1-15.776 10.592l-0.064-0.064-2.24 1.408a198.08 198.08 0 0 1-45.12 19.488c-13.952 3.744-28.608 5.76-43.744 5.76a169.824 169.824 0 0 1-169.6-169.632 169.728 169.728 0 0 1 169.6-169.632 169.92 169.92 0 0 1 169.216 156.992 260.32 260.32 0 0 0 37.728 118.912A263.456 263.456 0 0 0 976 572.128a263.456 263.456 0 0 0-263.424-263.456" fill="#d4237a" p-id="42734"></path></svg>