<?xml version="1.0" standalone="no"?><!DOCTYPE svg PUBLIC "-//W3C//DTD SVG 1.1//EN" "http://www.w3.org/Graphics/SVG/1.1/DTD/svg11.dtd"><svg t="1739024217635" class="icon" viewBox="0 0 1024 1024" version="1.1" xmlns="http://www.w3.org/2000/svg" p-id="10173" xmlns:xlink="http://www.w3.org/1999/xlink" width="200" height="200"><path d="M944 534.88a36.48 36.48 0 0 1-23.52 34.24l-252.48 98.88-88.32-88.32 8.16-7.84a756 756 0 0 0 129.44-173.28l206.24 103.2A36.8 36.8 0 0 1 944 534.88z" fill="#ACD5EA" p-id="10174"></path><path d="M717.28 398.56a756 756 0 0 1-129.44 173.28l-8.16 7.84L80 80z" fill="#CEE6F4" p-id="10175"></path><path d="M542.08 717.28l-127.04 49.76-184.64 72.16a36.96 36.96 0 0 1-39.52-8.32l-6.08-6.08a36.32 36.32 0 0 1-10.4-21.28L171.68 784a747.84 747.84 0 0 0 322.56-132.8z" fill="#ACD5EA" p-id="10176"></path><path d="M494.24 651.2A747.84 747.84 0 0 1 171.68 784L80 80z" fill="#CEE6F4" p-id="10177"></path><path d="M80 80l462.08 637.28 1.92 2.72 48 224 80-272L80 80z" fill="#76B4E2" p-id="10178"></path><path d="M415.04 767.04L592 944l-48-224-1.92-2.72-127.04 49.76z" fill="#5EA2CC" p-id="10179"></path><path d="M668 684a16 16 0 0 1-11.36-4.64l-110.88-110.88a16 16 0 0 1 22.72-22.72L672 649.28l242.88-95.04a20.64 20.64 0 0 0 13.12-19.36 20.8 20.8 0 0 0-11.52-18.72L160.96 138.4l365.28 365.12a16 16 0 0 1-22.72 22.72L68.64 91.36a16 16 0 0 1 18.56-25.6l843.52 421.76a52.8 52.8 0 0 1-4.48 96l-252.48 99.36a14.24 14.24 0 0 1-5.76 1.12z" fill="#0D182D" p-id="10180"></path><path d="M216.96 857.76a53.12 53.12 0 0 1-37.44-16l-6.08-6.08a51.68 51.68 0 0 1-14.88-30.72L107.68 416a16 16 0 0 1 32-4.16l50.88 389.76a20 20 0 0 0 5.92 12l6.08 6.08a20.8 20.8 0 0 0 22.4 4.8l292.32-114.4L104 140.32l27.36 209.76a16 16 0 0 1-32 4.16L64 82.08a16 16 0 0 1 9.92-16.96 16 16 0 0 1 18.88 5.44l462.24 637.28a16 16 0 0 1-7.2 24.32l-311.68 121.92a53.12 53.12 0 0 1-19.2 3.68z" fill="#0D182D" p-id="10181"></path><path d="M592 960a16 16 0 0 1-15.04-12.64l-48-220.8L67.04 89.44a16 16 0 0 1 24.32-20.8l434.88 434.88a16 16 0 0 1-22.72 22.72L211.52 234.24l345.6 476.48a19.52 19.52 0 0 1 2.56 5.92l34.72 162.4 59.52-202.4-108.16-108.16a16 16 0 0 1 22.72-22.72l114.88 114.88a16 16 0 0 1 4 16l-80 272A16 16 0 0 1 592 960z" fill="#0D182D" p-id="10182"></path><path d="M592 960a16 16 0 0 1-11.36-4.64L403.68 778.4a16 16 0 0 1 5.6-26.4l127.04-49.76a16 16 0 0 1 18.88 5.6l1.92 2.72a19.52 19.52 0 0 1 2.56 5.92l48 224a16 16 0 0 1-8 17.44A16 16 0 0 1 592 960z m-148.32-187.04l121.28 121.44-33.28-155.84z" fill="#0D182D" p-id="10183"></path></svg>