<?xml version="1.0" standalone="no"?><!DOCTYPE svg PUBLIC "-//W3C//DTD SVG 1.1//EN" "http://www.w3.org/Graphics/SVG/1.1/DTD/svg11.dtd"><svg t="1736067406128" class="icon" viewBox="0 0 1028 1024" version="1.1" xmlns="http://www.w3.org/2000/svg" p-id="3744" xmlns:xlink="http://www.w3.org/1999/xlink" width="200.78125" height="200"><path d="M1003.845009 858.575026c-8.628313 69.12-75.241739 135.733426-144.366192 144.366191-231.050017 27.060313-462.100035 27.060313-693.150052 0-69.115548-8.628313-135.737878-75.241739-144.366191-144.366191-27.064765-231.050017-27.064765-462.100035 0-693.150052 8.628313-69.12 75.241739-135.737878 144.366191-144.370644 231.050017-27.064765 462.100035-27.064765 693.150052 0 69.12 8.628313 135.733426 75.250643 144.366192 144.370644 27.060313 231.050017 27.060313 462.095583 0 693.150052z" fill="#FF5C68" p-id="3745"></path><path d="M231.032209 707.00967c63.768487-40.875409 125.613635-95.797426 179.511652-163.666366-17.893287 22.318748-45.11833 19.959096-60.776626-1.340104 45.946435 61.934191 85.788939 135.688904 114.656835 218.730852 9.741357 28.542887 35.69753 37.037635 59.00466 15.40007 133.738852-124.095443 242.020174-299.617948 299.675827-491.978574 10.431443-33.190957-2.773704-85.842365-28.91687-115.093148-26.15207-29.32647-52.157217-24.299965-58.875548 8.704-39.642157 191.439026-131.913461 367.954365-252.059826 494.191304 20.471096-21.95367 47.664974-19.1488 60.197844 9.901635-35.719791-84.114922-81.724104-158.457322-133.177879-220.685356-17.915548-21.517357-44.6464-17.701843-60.295791 4.634713-48.128 68.180591-105.02233 123.694748-164.610226 165.193461-19.478261 13.7216-24.905461 38.595896-13.053774 59.534469 11.869496 20.813913 37.611965 29.949774 58.719722 16.473044z" fill="#FFFFFF" p-id="3746"></path></svg>